<svg xmlns="http://www.w3.org/2000/svg" viewBox="0 0 640 320" width="640" height="320" role="img" aria-label="math-text — 2x2 matrix annotation (Math PR6)" aria-describedby="glyph-desc"><desc id="glyph-desc">math-text — 2x2 matrix annotation (Math PR6)</desc><metadata id="glyph-provenance"><![CDATA[{"format":"glyph-provenance/1","specHash":"8a87cc68bcf9e6351968b527f37184a86b2e7f67abf4e30ca522b4122583407c","dataHash":"2c4db429dc02e20a36ad33a3efa97c8bc0ce91c11c31de67dddf90dc809d1099","libraryVersion":"0.0.0","rowCount":60,"scaleDigest":"94682caab6a3155667555ddf8c74b06eb0970893c9f9fbbfebd00c26c60cf454"}]]></metadata><rect x="0" y="0" width="640" height="320" fill="#ffffff"/><text x="320" y="16" font-family="system-ui, -apple-system, sans-serif" font-size="14" fill="#1a1a1a" text-anchor="middle" dominant-baseline="middle">math-text — 2x2 matrix annotation (Math PR6)</text><line x1="56" y1="280" x2="616" y2="280" stroke="#e6e6e6" stroke-width="1"/><line x1="56" y1="237.33333333" x2="616" y2="237.33333333" stroke="#e6e6e6" stroke-width="1"/><line x1="56" y1="194.66666667" x2="616" y2="194.66666667" stroke="#e6e6e6" stroke-width="1"/><line x1="56" y1="152" x2="616" y2="152" stroke="#e6e6e6" stroke-width="1"/><line x1="56" y1="109.33333333" x2="616" y2="109.33333333" stroke="#e6e6e6" stroke-width="1"/><line x1="56" y1="66.66666667" x2="616" y2="66.66666667" stroke="#e6e6e6" stroke-width="1"/><line x1="56" y1="24" x2="616" y2="24" stroke="#e6e6e6" stroke-width="1"/><path d="M 56 280 L 65.49152542 275.66101695 L 74.98305085 271.3220339 L 84.47457627 266.98305085 L 93.96610169 262.6440678 L 103.45762712 258.30508475 L 112.94915254 253.96610169 L 122.44067797 249.62711864 L 131.93220339 245.28813559 L 141.42372881 240.94915254 L 150.91525424 236.61016949 L 160.40677966 232.27118644 L 169.89830508 227.93220339 L 179.38983051 223.59322034 L 188.88135593 219.25423729 L 198.37288136 214.91525424 L 207.86440678 210.57627119 L 217.3559322 206.23728814 L 226.84745763 201.89830508 L 236.33898305 197.55932203 L 245.83050847 193.22033898 L 255.3220339 188.88135593 L 264.81355932 184.54237288 L 274.30508475 180.20338983 L 283.79661017 175.86440678 L 293.28813559 171.52542373 L 302.77966102 167.18644068 L 312.27118644 162.84745763 L 321.76271186 158.50847458 L 331.25423729 154.16949153 L 340.74576271 149.83050847 L 350.23728814 145.49152542 L 359.72881356 141.15254237 L 369.22033898 136.81355932 L 378.71186441 132.47457627 L 388.20338983 128.13559322 L 397.69491525 123.79661017 L 407.18644068 119.45762712 L 416.6779661 115.11864407 L 426.16949153 110.77966102 L 435.66101695 106.44067797 L 445.15254237 102.10169492 L 454.6440678 97.76271186 L 464.13559322 93.42372881 L 473.62711864 89.08474576 L 483.11864407 84.74576271 L 492.61016949 80.40677966 L 502.10169492 76.06779661 L 511.59322034 71.72881356 L 521.08474576 67.38983051 L 530.57627119 63.05084746 L 540.06779661 58.71186441 L 549.55932203 54.37288136 L 559.05084746 50.03389831 L 568.54237288 45.69491525 L 578.03389831 41.3559322 L 587.52542373 37.01694915 L 597.01694915 32.6779661 L 606.50847458 28.33898305 L 616 24" fill="none" stroke="#4c78a8" stroke-width="1.5"/><text x="200.78666667" y="66.66666667" font-size="24" fill="#1a1a1a" text-anchor="start" dominant-baseline="alphabetic">A</text><text x="213.98666667" y="66.66666667" font-size="24" fill="#1a1a1a" text-anchor="start" dominant-baseline="alphabetic">=</text><text x="228.38666667" y="66.66666667" font-size="24" fill="#1a1a1a" text-anchor="start" dominant-baseline="alphabetic">(</text><text x="236.06666667" y="57.06666667" font-size="24" fill="#1a1a1a" text-anchor="start" dominant-baseline="alphabetic">a</text><text x="263.66666667" y="57.06666667" font-size="24" fill="#1a1a1a" text-anchor="start" dominant-baseline="alphabetic">b</text><text x="236.06666667" y="88.26666667" font-size="24" fill="#1a1a1a" text-anchor="start" dominant-baseline="alphabetic">c</text><text x="263.66666667" y="88.26666667" font-size="24" fill="#1a1a1a" text-anchor="start" dominant-baseline="alphabetic">d</text><text x="276.86666667" y="66.66666667" font-size="24" fill="#1a1a1a" text-anchor="start" dominant-baseline="alphabetic">)</text><line x1="56" y1="280" x2="616" y2="280" stroke="#999999" stroke-width="1"/><line x1="56" y1="280" x2="56" y2="284" stroke="#999999" stroke-width="1"/><text x="56" y="296" font-family="system-ui, -apple-system, sans-serif" font-size="11" fill="#333333" text-anchor="middle" dominant-baseline="hanging">-3</text><line x1="149.33333333" y1="280" x2="149.33333333" y2="284" stroke="#999999" stroke-width="1"/><text x="149.33333333" y="296" font-family="system-ui, -apple-system, sans-serif" font-size="11" fill="#333333" text-anchor="middle" dominant-baseline="hanging">-2</text><line x1="242.66666667" y1="280" x2="242.66666667" y2="284" stroke="#999999" stroke-width="1"/><text x="242.66666667" y="296" font-family="system-ui, -apple-system, sans-serif" font-size="11" fill="#333333" text-anchor="middle" dominant-baseline="hanging">-1</text><line x1="336" y1="280" x2="336" y2="284" stroke="#999999" stroke-width="1"/><text x="336" y="296" font-family="system-ui, -apple-system, sans-serif" font-size="11" fill="#333333" text-anchor="middle" dominant-baseline="hanging">0</text><line x1="429.33333333" y1="280" x2="429.33333333" y2="284" stroke="#999999" stroke-width="1"/><text x="429.33333333" y="296" font-family="system-ui, -apple-system, sans-serif" font-size="11" fill="#333333" text-anchor="middle" dominant-baseline="hanging">1</text><line x1="522.66666667" y1="280" x2="522.66666667" y2="284" stroke="#999999" stroke-width="1"/><text x="522.66666667" y="296" font-family="system-ui, -apple-system, sans-serif" font-size="11" fill="#333333" text-anchor="middle" dominant-baseline="hanging">2</text><line x1="616" y1="280" x2="616" y2="284" stroke="#999999" stroke-width="1"/><text x="616" y="296" font-family="system-ui, -apple-system, sans-serif" font-size="11" fill="#333333" text-anchor="middle" dominant-baseline="hanging">3</text><text x="336" y="312" font-family="system-ui, -apple-system, sans-serif" font-size="12" fill="#333333" text-anchor="middle" dominant-baseline="hanging">x</text><line x1="56" y1="24" x2="56" y2="280" stroke="#999999" stroke-width="1"/><line x1="52" y1="280" x2="56" y2="280" stroke="#999999" stroke-width="1"/><text x="48" y="280" font-family="system-ui, -apple-system, sans-serif" font-size="11" fill="#333333" text-anchor="end" dominant-baseline="middle">-3</text><line x1="52" y1="237.33333333" x2="56" y2="237.33333333" stroke="#999999" stroke-width="1"/><text x="48" y="237.33333333" font-family="system-ui, -apple-system, sans-serif" font-size="11" fill="#333333" text-anchor="end" dominant-baseline="middle">-2</text><line x1="52" y1="194.66666667" x2="56" y2="194.66666667" stroke="#999999" stroke-width="1"/><text x="48" y="194.66666667" font-family="system-ui, -apple-system, sans-serif" font-size="11" fill="#333333" text-anchor="end" dominant-baseline="middle">-1</text><line x1="52" y1="152" x2="56" y2="152" stroke="#999999" stroke-width="1"/><text x="48" y="152" font-family="system-ui, -apple-system, sans-serif" font-size="11" fill="#333333" text-anchor="end" dominant-baseline="middle">0</text><line x1="52" y1="109.33333333" x2="56" y2="109.33333333" stroke="#999999" stroke-width="1"/><text x="48" y="109.33333333" font-family="system-ui, -apple-system, sans-serif" font-size="11" fill="#333333" text-anchor="end" dominant-baseline="middle">1</text><line x1="52" y1="66.66666667" x2="56" y2="66.66666667" stroke="#999999" stroke-width="1"/><text x="48" y="66.66666667" font-family="system-ui, -apple-system, sans-serif" font-size="11" fill="#333333" text-anchor="end" dominant-baseline="middle">2</text><line x1="52" y1="24" x2="56" y2="24" stroke="#999999" stroke-width="1"/><text x="48" y="24" font-family="system-ui, -apple-system, sans-serif" font-size="11" fill="#333333" text-anchor="end" dominant-baseline="middle">3</text><text x="16" y="152" font-family="system-ui, -apple-system, sans-serif" font-size="12" fill="#333333" text-anchor="middle" dominant-baseline="alphabetic" transform="rotate(-90 16 152)">y</text></svg>
