<svg xmlns="http://www.w3.org/2000/svg" viewBox="0 0 640 320" width="640" height="320" role="img" aria-label="math-text — square-root annotation (Math PR6)" aria-describedby="glyph-desc"><desc id="glyph-desc">math-text — square-root annotation (Math PR6)</desc><metadata id="glyph-provenance"><![CDATA[{"format":"glyph-provenance/1","specHash":"fa6fa9dfe0dcb1c6f42133a3e8efc85e15066450c9671dddf885a5306fc03ac7","dataHash":"c56826ba5f31a0034c207939bf6dc6e378e0cacbb72f53ec8fc9ffdb9e7a0c9c","libraryVersion":"0.0.0","rowCount":80,"scaleDigest":"e2a0ef432e1e0e9e095b0f36f64137851441f1e0796b13dc43c9ec48f8344623"}]]></metadata><rect x="0" y="0" width="640" height="320" fill="#ffffff"/><text x="320" y="16" font-family="system-ui, -apple-system, sans-serif" font-size="14" fill="#1a1a1a" text-anchor="middle" dominant-baseline="middle">math-text — square-root annotation (Math PR6)</text><line x1="56" y1="280" x2="616" y2="280" stroke="#e6e6e6" stroke-width="1"/><line x1="56" y1="243.42857143" x2="616" y2="243.42857143" stroke="#e6e6e6" stroke-width="1"/><line x1="56" y1="206.85714286" x2="616" y2="206.85714286" stroke="#e6e6e6" stroke-width="1"/><line x1="56" y1="170.28571429" x2="616" y2="170.28571429" stroke="#e6e6e6" stroke-width="1"/><line x1="56" y1="133.71428571" x2="616" y2="133.71428571" stroke="#e6e6e6" stroke-width="1"/><line x1="56" y1="97.14285714" x2="616" y2="97.14285714" stroke="#e6e6e6" stroke-width="1"/><line x1="56" y1="60.57142857" x2="616" y2="60.57142857" stroke="#e6e6e6" stroke-width="1"/><line x1="56" y1="24" x2="616" y2="24" stroke="#e6e6e6" stroke-width="1"/><path d="M 56 48.70197686 L 63.08860759 53.96523197 L 70.17721519 59.21418371 L 77.26582278 64.44778718 L 84.35443038 69.66489666 L 91.44303797 74.86425371 L 98.53164557 80.04447349 L 105.62025316 85.20402924 L 112.70886076 90.3412345 L 119.79746835 95.45422274 L 126.88607595 100.54092405 L 133.97468354 105.59903829 L 141.06329114 110.62600432 L 148.15189873 115.61896446 L 155.24050633 120.57472363 L 162.32911392 125.48970225 L 169.41772152 130.35988192 L 176.50632911 135.18074287 L 183.59493671 139.94719212 L 190.6835443 144.65348094 L 197.7721519 149.29311069 L 204.86075949 153.85872575 L 211.94936709 158.34199289 L 219.03797468 162.73346692 L 226.12658228 167.02244323 L 233.21518987 171.1967999 L 240.30379747 175.24283396 L 247.39240506 179.14510033 L 254.48101266 182.88626667 L 261.56962025 186.44700388 L 268.65822785 189.80594017 L 275.74683544 192.93971491 L 282.83544304 195.82317709 L 289.92405063 198.42977714 L 297.01265823 200.7321978 L 304.10126582 202.70325273 L 311.18987342 204.31704765 L 318.27848101 205.55034667 L 325.36708861 206.38402382 L 332.4556962 206.80442306 L 339.5443038 206.80442306 L 346.63291139 206.38402382 L 353.72151899 205.55034667 L 360.81012658 204.31704765 L 367.89873418 202.70325273 L 374.98734177 200.7321978 L 382.07594937 198.42977714 L 389.16455696 195.82317709 L 396.25316456 192.93971491 L 403.34177215 189.80594017 L 410.43037975 186.44700388 L 417.51898734 182.88626667 L 424.60759494 179.14510033 L 431.69620253 175.24283396 L 438.78481013 171.1967999 L 445.87341772 167.02244323 L 452.96202532 162.73346692 L 460.05063291 158.34199289 L 467.13924051 153.85872575 L 474.2278481 149.29311069 L 481.3164557 144.65348094 L 488.40506329 139.94719212 L 495.49367089 135.18074287 L 502.58227848 130.35988192 L 509.67088608 125.48970225 L 516.75949367 120.57472363 L 523.84810127 115.61896446 L 530.93670886 110.62600432 L 538.02531646 105.59903829 L 545.11392405 100.54092405 L 552.20253165 95.45422274 L 559.29113924 90.3412345 L 566.37974684 85.20402924 L 573.46835443 80.04447349 L 580.55696203 74.86425371 L 587.64556962 69.66489666 L 594.73417722 64.44778718 L 601.82278481 59.21418371 L 608.91139241 53.96523197 L 616 48.70197686" fill="none" stroke="#4c78a8" stroke-width="1.5"/><text x="293.265" y="82.51428571" font-size="22" fill="#1a1a1a" text-anchor="start" dominant-baseline="alphabetic">y</text><text x="305.365" y="82.51428571" font-size="22" fill="#1a1a1a" text-anchor="start" dominant-baseline="alphabetic">=</text><text x="318.565" y="82.51428571" font-size="22" fill="#1a1a1a" text-anchor="start" dominant-baseline="alphabetic">√</text><text x="331.765" y="82.51428571" font-size="22" fill="#1a1a1a" text-anchor="start" dominant-baseline="alphabetic">x</text><text x="343.865" y="72.61428571" font-size="15.4" fill="#1a1a1a" text-anchor="start" dominant-baseline="alphabetic">2</text><text x="352.335" y="82.51428571" font-size="22" fill="#1a1a1a" text-anchor="start" dominant-baseline="alphabetic">+</text><text x="365.535" y="82.51428571" font-size="22" fill="#1a1a1a" text-anchor="start" dominant-baseline="alphabetic">1</text><path d="M 330.665 58.86428571 L 378.735 58.86428571" fill="none" stroke="#1a1a1a" stroke-width="1.32"/><text x="135.81083333" y="196.05714286" font-size="9.9" fill="#1a1a1a" text-anchor="start" dominant-baseline="alphabetic">3</text><text x="141.25583333" y="206.85714286" font-size="18" fill="#1a1a1a" text-anchor="start" dominant-baseline="alphabetic">√</text><text x="152.05583333" y="206.85714286" font-size="18" fill="#1a1a1a" text-anchor="start" dominant-baseline="alphabetic">x</text><path d="M 151.15583333 191.55714286 L 162.85583333 191.55714286" fill="none" stroke="#1a1a1a" stroke-width="1.08"/><line x1="56" y1="280" x2="616" y2="280" stroke="#999999" stroke-width="1"/><line x1="56" y1="280" x2="56" y2="284" stroke="#999999" stroke-width="1"/><text x="56" y="296" font-family="system-ui, -apple-system, sans-serif" font-size="11" fill="#333333" text-anchor="middle" dominant-baseline="hanging">-3</text><line x1="149.33333333" y1="280" x2="149.33333333" y2="284" stroke="#999999" stroke-width="1"/><text x="149.33333333" y="296" font-family="system-ui, -apple-system, sans-serif" font-size="11" fill="#333333" text-anchor="middle" dominant-baseline="hanging">-2</text><line x1="242.66666667" y1="280" x2="242.66666667" y2="284" stroke="#999999" stroke-width="1"/><text x="242.66666667" y="296" font-family="system-ui, -apple-system, sans-serif" font-size="11" fill="#333333" text-anchor="middle" dominant-baseline="hanging">-1</text><line x1="336" y1="280" x2="336" y2="284" stroke="#999999" stroke-width="1"/><text x="336" y="296" font-family="system-ui, -apple-system, sans-serif" font-size="11" fill="#333333" text-anchor="middle" dominant-baseline="hanging">0</text><line x1="429.33333333" y1="280" x2="429.33333333" y2="284" stroke="#999999" stroke-width="1"/><text x="429.33333333" y="296" font-family="system-ui, -apple-system, sans-serif" font-size="11" fill="#333333" text-anchor="middle" dominant-baseline="hanging">1</text><line x1="522.66666667" y1="280" x2="522.66666667" y2="284" stroke="#999999" stroke-width="1"/><text x="522.66666667" y="296" font-family="system-ui, -apple-system, sans-serif" font-size="11" fill="#333333" text-anchor="middle" dominant-baseline="hanging">2</text><line x1="616" y1="280" x2="616" y2="284" stroke="#999999" stroke-width="1"/><text x="616" y="296" font-family="system-ui, -apple-system, sans-serif" font-size="11" fill="#333333" text-anchor="middle" dominant-baseline="hanging">3</text><text x="336" y="312" font-family="system-ui, -apple-system, sans-serif" font-size="12" fill="#333333" text-anchor="middle" dominant-baseline="hanging">x</text><line x1="56" y1="24" x2="56" y2="280" stroke="#999999" stroke-width="1"/><line x1="52" y1="280" x2="56" y2="280" stroke="#999999" stroke-width="1"/><text x="48" y="280" font-family="system-ui, -apple-system, sans-serif" font-size="11" fill="#333333" text-anchor="end" dominant-baseline="middle">0</text><line x1="52" y1="243.42857143" x2="56" y2="243.42857143" stroke="#999999" stroke-width="1"/><text x="48" y="243.42857143" font-family="system-ui, -apple-system, sans-serif" font-size="11" fill="#333333" text-anchor="end" dominant-baseline="middle">0.5</text><line x1="52" y1="206.85714286" x2="56" y2="206.85714286" stroke="#999999" stroke-width="1"/><text x="48" y="206.85714286" font-family="system-ui, -apple-system, sans-serif" font-size="11" fill="#333333" text-anchor="end" dominant-baseline="middle">1</text><line x1="52" y1="170.28571429" x2="56" y2="170.28571429" stroke="#999999" stroke-width="1"/><text x="48" y="170.28571429" font-family="system-ui, -apple-system, sans-serif" font-size="11" fill="#333333" text-anchor="end" dominant-baseline="middle">1.5</text><line x1="52" y1="133.71428571" x2="56" y2="133.71428571" stroke="#999999" stroke-width="1"/><text x="48" y="133.71428571" font-family="system-ui, -apple-system, sans-serif" font-size="11" fill="#333333" text-anchor="end" dominant-baseline="middle">2</text><line x1="52" y1="97.14285714" x2="56" y2="97.14285714" stroke="#999999" stroke-width="1"/><text x="48" y="97.14285714" font-family="system-ui, -apple-system, sans-serif" font-size="11" fill="#333333" text-anchor="end" dominant-baseline="middle">2.5</text><line x1="52" y1="60.57142857" x2="56" y2="60.57142857" stroke="#999999" stroke-width="1"/><text x="48" y="60.57142857" font-family="system-ui, -apple-system, sans-serif" font-size="11" fill="#333333" text-anchor="end" dominant-baseline="middle">3</text><line x1="52" y1="24" x2="56" y2="24" stroke="#999999" stroke-width="1"/><text x="48" y="24" font-family="system-ui, -apple-system, sans-serif" font-size="11" fill="#333333" text-anchor="end" dominant-baseline="middle">3.5</text><text x="16" y="152" font-family="system-ui, -apple-system, sans-serif" font-size="12" fill="#333333" text-anchor="middle" dominant-baseline="alphabetic" transform="rotate(-90 16 152)">y</text></svg>
