<svg xmlns="http://www.w3.org/2000/svg" viewBox="0 0 640 400" width="640" height="400" role="img" aria-label="Sensor stream — interpolated bridges" aria-describedby="glyph-desc"><desc id="glyph-desc">Sensor stream — interpolated bridges</desc><metadata id="glyph-provenance"><![CDATA[{"format":"glyph-provenance/1","specHash":"b7ac83bb20093325901f8a6a67049cfff50f3671f8fa6e83094e599bc1d64b51","dataHash":"fc100881508dab7060f901602b048791fae4f047915a1d3bffa81db8157d580c","libraryVersion":"0.0.0","rowCount":10,"scaleDigest":"606ef1ddc63adf1a3224d85d19d5d65b22007af9adecacf9586f8bed3ff9e689"}]]></metadata><rect x="0" y="0" width="640" height="400" fill="#ffffff"/><text x="320" y="16" font-family="system-ui, -apple-system, sans-serif" font-size="14" fill="#1a1a1a" text-anchor="middle" dominant-baseline="middle">Sensor stream — interpolated bridges</text><line x1="56" y1="352" x2="616" y2="352" stroke="#e6e6e6" stroke-width="1"/><line x1="56" y1="286.4" x2="616" y2="286.4" stroke="#e6e6e6" stroke-width="1"/><line x1="56" y1="220.8" x2="616" y2="220.8" stroke="#e6e6e6" stroke-width="1"/><line x1="56" y1="155.2" x2="616" y2="155.2" stroke="#e6e6e6" stroke-width="1"/><line x1="56" y1="89.6" x2="616" y2="89.6" stroke="#e6e6e6" stroke-width="1"/><line x1="56" y1="24" x2="616" y2="24" stroke="#e6e6e6" stroke-width="1"/><path d="M 56 319.2 L 112 286.4 M 112 286.4 L 168 253.6 M 280 188 L 336 155.2 M 336 155.2 L 392 122.4 M 504 63.36 L 560 40.4" fill="none" stroke="#4c78a8" stroke-width="1.5"/><path d="M 168 253.6 L 224 220.8 M 224 220.8 L 280 188 M 392 122.4 L 448 92.88 M 448 92.88 L 504 63.36" fill="none" stroke="#4c78a8" stroke-width="1.5" stroke-dasharray="4 4"/><line x1="56" y1="352" x2="616" y2="352" stroke="#999999" stroke-width="1"/><line x1="56" y1="352" x2="56" y2="356" stroke="#999999" stroke-width="1"/><text x="56" y="368" font-family="system-ui, -apple-system, sans-serif" font-size="11" fill="#333333" text-anchor="middle" dominant-baseline="hanging">0</text><line x1="168" y1="352" x2="168" y2="356" stroke="#999999" stroke-width="1"/><text x="168" y="368" font-family="system-ui, -apple-system, sans-serif" font-size="11" fill="#333333" text-anchor="middle" dominant-baseline="hanging">2</text><line x1="280" y1="352" x2="280" y2="356" stroke="#999999" stroke-width="1"/><text x="280" y="368" font-family="system-ui, -apple-system, sans-serif" font-size="11" fill="#333333" text-anchor="middle" dominant-baseline="hanging">4</text><line x1="392" y1="352" x2="392" y2="356" stroke="#999999" stroke-width="1"/><text x="392" y="368" font-family="system-ui, -apple-system, sans-serif" font-size="11" fill="#333333" text-anchor="middle" dominant-baseline="hanging">6</text><line x1="504" y1="352" x2="504" y2="356" stroke="#999999" stroke-width="1"/><text x="504" y="368" font-family="system-ui, -apple-system, sans-serif" font-size="11" fill="#333333" text-anchor="middle" dominant-baseline="hanging">8</text><line x1="616" y1="352" x2="616" y2="356" stroke="#999999" stroke-width="1"/><text x="616" y="368" font-family="system-ui, -apple-system, sans-serif" font-size="11" fill="#333333" text-anchor="middle" dominant-baseline="hanging">10</text><text x="336" y="384" font-family="system-ui, -apple-system, sans-serif" font-size="12" fill="#333333" text-anchor="middle" dominant-baseline="hanging">t</text><line x1="56" y1="24" x2="56" y2="352" stroke="#999999" stroke-width="1"/><line x1="52" y1="352" x2="56" y2="352" stroke="#999999" stroke-width="1"/><text x="48" y="352" font-family="system-ui, -apple-system, sans-serif" font-size="11" fill="#333333" text-anchor="end" dominant-baseline="middle">0</text><line x1="52" y1="286.4" x2="56" y2="286.4" stroke="#999999" stroke-width="1"/><text x="48" y="286.4" font-family="system-ui, -apple-system, sans-serif" font-size="11" fill="#333333" text-anchor="end" dominant-baseline="middle">20</text><line x1="52" y1="220.8" x2="56" y2="220.8" stroke="#999999" stroke-width="1"/><text x="48" y="220.8" font-family="system-ui, -apple-system, sans-serif" font-size="11" fill="#333333" text-anchor="end" dominant-baseline="middle">40</text><line x1="52" y1="155.2" x2="56" y2="155.2" stroke="#999999" stroke-width="1"/><text x="48" y="155.2" font-family="system-ui, -apple-system, sans-serif" font-size="11" fill="#333333" text-anchor="end" dominant-baseline="middle">60</text><line x1="52" y1="89.6" x2="56" y2="89.6" stroke="#999999" stroke-width="1"/><text x="48" y="89.6" font-family="system-ui, -apple-system, sans-serif" font-size="11" fill="#333333" text-anchor="end" dominant-baseline="middle">80</text><line x1="52" y1="24" x2="56" y2="24" stroke="#999999" stroke-width="1"/><text x="48" y="24" font-family="system-ui, -apple-system, sans-serif" font-size="11" fill="#333333" text-anchor="end" dominant-baseline="middle">100</text><text x="16" y="188" font-family="system-ui, -apple-system, sans-serif" font-size="12" fill="#333333" text-anchor="middle" dominant-baseline="alphabetic" transform="rotate(-90 16 188)">value</text></svg>
