<svg xmlns="http://www.w3.org/2000/svg" viewBox="0 0 640 400" width="640" height="400" role="img" aria-label="Cubic Bezier with de Casteljau construction at t = 0.5" aria-describedby="glyph-desc"><desc id="glyph-desc">Cubic Bezier with de Casteljau construction at t = 0.5</desc><metadata id="glyph-provenance"><![CDATA[{"format":"glyph-provenance/1","specHash":"036be4850e23fcd1cb3f6a9d776d1e6b17fdbd55893da44bd300b43d461d65e6","dataHash":"a9aca77a1ec063d99b10df49fcadd8dff780a08c5a78799ae6ee54dba088fa4d","libraryVersion":"0.0.0","rowCount":2,"scaleDigest":"90280a952c7f4c66eee325a926ccd1b41d82dee23ce9aa6d0e44971025d3c79c"}]]></metadata><rect x="0" y="0" width="640" height="400" fill="#ffffff"/><text x="320" y="16" font-family="system-ui, -apple-system, sans-serif" font-size="14" fill="#1a1a1a" text-anchor="middle" dominant-baseline="middle">Cubic Bezier with de Casteljau construction at t = 0.5</text><line x1="56" y1="360" x2="616" y2="360" stroke="#e6e6e6" stroke-width="1"/><line x1="56" y1="292.8" x2="616" y2="292.8" stroke="#e6e6e6" stroke-width="1"/><line x1="56" y1="225.6" x2="616" y2="225.6" stroke="#e6e6e6" stroke-width="1"/><line x1="56" y1="158.4" x2="616" y2="158.4" stroke="#e6e6e6" stroke-width="1"/><line x1="56" y1="91.2" x2="616" y2="91.2" stroke="#e6e6e6" stroke-width="1"/><line x1="56" y1="24" x2="616" y2="24" stroke="#e6e6e6" stroke-width="1"/><path d="M 112 326.4 L 115.03074074 313.184 L 118.51259259 300.416 L 122.43 288.096 L 126.76740741 276.224 L 131.50925926 264.8 L 136.64 253.824 L 142.14407407 243.296 L 148.00592593 233.216 L 154.21 223.584 L 160.74074074 214.4 L 167.58259259 205.664 L 174.72 197.376 L 182.13740741 189.536 L 189.81925926 182.144 L 197.75 175.2 L 205.91407407 168.704 L 214.29592593 162.656 L 222.88 157.056 L 231.65074074 151.904 L 240.59259259 147.2 L 249.69 142.944 L 258.92740741 139.136 L 268.28925926 135.776 L 277.76 132.864 L 287.32407407 130.4 L 296.96592593 128.384 L 306.67 126.816 L 316.42074074 125.696 L 326.20259259 125.024 L 336 124.8 L 345.79740741 125.024 L 355.57925926 125.696 L 365.33 126.816 L 375.03407407 128.384 L 384.67592593 130.4 L 394.24 132.864 L 403.71074074 135.776 L 413.07259259 139.136 L 422.31 142.944 L 431.40740741 147.2 L 440.34925926 151.904 L 449.12 157.056 L 457.70407407 162.656 L 466.08592593 168.704 L 474.25 175.2 L 482.18074074 182.144 L 489.86259259 189.536 L 497.28 197.376 L 504.41740741 205.664 L 511.25925926 214.4 L 517.79 223.584 L 523.99407407 233.216 L 529.85592593 243.296 L 535.36 253.824 L 540.49074074 264.8 L 545.23259259 276.224 L 549.57 288.096 L 553.48740741 300.416 L 556.96925926 313.184 L 560 326.4" fill="none" stroke="#3b82f6" stroke-width="1.8"/><path d="M 140 192 L 336 57.6 L 532 192" fill="none" stroke="#999999" stroke-width="1" stroke-dasharray="2 2"/><path d="M 238 124.8 L 434 124.8" fill="none" stroke="#999999" stroke-width="1" stroke-dasharray="2 2"/><path d="M 112 326.4 L 168 57.6 L 504 57.6 L 560 326.4" fill="none" stroke="#999999" stroke-width="1" stroke-dasharray="4 3"/><circle cx="112" cy="326.4" r="3" fill="#ffffff" stroke="#999999" stroke-width="1"/><circle cx="168" cy="57.6" r="3" fill="#ffffff" stroke="#999999" stroke-width="1"/><circle cx="504" cy="57.6" r="3" fill="#ffffff" stroke="#999999" stroke-width="1"/><circle cx="560" cy="326.4" r="3" fill="#ffffff" stroke="#999999" stroke-width="1"/><circle cx="336" cy="124.8" r="3" fill="#3b82f6" stroke="#3b82f6" stroke-width="1"/><line x1="56" y1="360" x2="616" y2="360" stroke="#999999" stroke-width="1"/><line x1="56" y1="360" x2="56" y2="364" stroke="#999999" stroke-width="1"/><text x="56" y="376" font-family="system-ui, -apple-system, sans-serif" font-size="11" fill="#333333" text-anchor="middle" dominant-baseline="hanging">0</text><line x1="168" y1="360" x2="168" y2="364" stroke="#999999" stroke-width="1"/><text x="168" y="376" font-family="system-ui, -apple-system, sans-serif" font-size="11" fill="#333333" text-anchor="middle" dominant-baseline="hanging">2</text><line x1="280" y1="360" x2="280" y2="364" stroke="#999999" stroke-width="1"/><text x="280" y="376" font-family="system-ui, -apple-system, sans-serif" font-size="11" fill="#333333" text-anchor="middle" dominant-baseline="hanging">4</text><line x1="392" y1="360" x2="392" y2="364" stroke="#999999" stroke-width="1"/><text x="392" y="376" font-family="system-ui, -apple-system, sans-serif" font-size="11" fill="#333333" text-anchor="middle" dominant-baseline="hanging">6</text><line x1="504" y1="360" x2="504" y2="364" stroke="#999999" stroke-width="1"/><text x="504" y="376" font-family="system-ui, -apple-system, sans-serif" font-size="11" fill="#333333" text-anchor="middle" dominant-baseline="hanging">8</text><line x1="616" y1="360" x2="616" y2="364" stroke="#999999" stroke-width="1"/><text x="616" y="376" font-family="system-ui, -apple-system, sans-serif" font-size="11" fill="#333333" text-anchor="middle" dominant-baseline="hanging">10</text><text x="336" y="392" font-family="system-ui, -apple-system, sans-serif" font-size="12" fill="#333333" text-anchor="middle" dominant-baseline="hanging">x</text><line x1="56" y1="24" x2="56" y2="360" stroke="#999999" stroke-width="1"/><line x1="52" y1="360" x2="56" y2="360" stroke="#999999" stroke-width="1"/><text x="48" y="360" font-family="system-ui, -apple-system, sans-serif" font-size="11" fill="#333333" text-anchor="end" dominant-baseline="middle">0</text><line x1="52" y1="292.8" x2="56" y2="292.8" stroke="#999999" stroke-width="1"/><text x="48" y="292.8" font-family="system-ui, -apple-system, sans-serif" font-size="11" fill="#333333" text-anchor="end" dominant-baseline="middle">2</text><line x1="52" y1="225.6" x2="56" y2="225.6" stroke="#999999" stroke-width="1"/><text x="48" y="225.6" font-family="system-ui, -apple-system, sans-serif" font-size="11" fill="#333333" text-anchor="end" dominant-baseline="middle">4</text><line x1="52" y1="158.4" x2="56" y2="158.4" stroke="#999999" stroke-width="1"/><text x="48" y="158.4" font-family="system-ui, -apple-system, sans-serif" font-size="11" fill="#333333" text-anchor="end" dominant-baseline="middle">6</text><line x1="52" y1="91.2" x2="56" y2="91.2" stroke="#999999" stroke-width="1"/><text x="48" y="91.2" font-family="system-ui, -apple-system, sans-serif" font-size="11" fill="#333333" text-anchor="end" dominant-baseline="middle">8</text><line x1="52" y1="24" x2="56" y2="24" stroke="#999999" stroke-width="1"/><text x="48" y="24" font-family="system-ui, -apple-system, sans-serif" font-size="11" fill="#333333" text-anchor="end" dominant-baseline="middle">10</text><text x="16" y="192" font-family="system-ui, -apple-system, sans-serif" font-size="12" fill="#333333" text-anchor="middle" dominant-baseline="alphabetic" transform="rotate(-90 16 192)">y</text></svg>
