<svg xmlns="http://www.w3.org/2000/svg" xmlns:xlink="http://www.w3.org/1999/xlink" viewBox="0 0 640 400" width="640" height="400" role="img" aria-label="Sine traveler — kid-delight dot" aria-describedby="glyph-desc"><desc id="glyph-desc">Sine traveler — kid-delight dot</desc><metadata id="glyph-provenance"><![CDATA[{"format":"glyph-provenance/1","specHash":"4ed651c8c1f7ba24709170b8b869a274d939be7097789d8174334d27c824b157","dataHash":"1d795278fa4cc8ac61b0fd545b1759f33147b65ae5cdefb6419178b8ff52a7f5","libraryVersion":"0.0.0","rowCount":100,"scaleDigest":"ba4e393d19a68aac355dfe4962507682e0759ae25853f7a254b3446597906081"}]]></metadata><rect x="0" y="0" width="640" height="400" fill="#ffffff"/><text x="320" y="16" font-family="system-ui, -apple-system, sans-serif" font-size="14" fill="#1a1a1a" text-anchor="middle" dominant-baseline="middle">Sine traveler — kid-delight dot</text><line x1="56" y1="360" x2="616" y2="360" stroke="#e6e6e6" stroke-width="1"/><line x1="56" y1="276" x2="616" y2="276" stroke="#e6e6e6" stroke-width="1"/><line x1="56" y1="192" x2="616" y2="192" stroke="#e6e6e6" stroke-width="1"/><line x1="56" y1="108" x2="616" y2="108" stroke="#e6e6e6" stroke-width="1"/><line x1="56" y1="24" x2="616" y2="24" stroke="#e6e6e6" stroke-width="1"/><path d="M 116.2 191.4648693 L 120.64040404 170.21246961 L 125.08080808 149.31028457 L 129.52121212 129.09429768 L 133.96161616 109.88946247 L 138.4020202 92.00447911 L 142.84242424 75.72683236 L 147.28282828 61.31817052 L 151.72323232 49.01009965 L 156.16363636 39.00046075 L 160.6040404 31.45014962 L 165.04444444 26.4805306 L 169.48484848 24.17148578 L 173.92525253 24.56013095 L 178.36565657 27.64021899 L 182.80606061 33.3622403 L 187.24646465 41.63421862 L 191.68686869 52.32318944 L 196.12727273 65.25733735 L 200.56767677 80.22875773 L 205.00808081 96.99679868 L 209.44848485 115.29192926 L 213.88888889 134.82007198 L 218.32929293 155.26732978 L 222.76969697 176.30503169 L 227.21010101 197.59501586 L 231.65050505 218.79506528 L 236.09090909 239.5644085 L 240.53131313 259.56919733 L 244.97171717 278.48787306 L 249.41212121 296.01633528 L 253.85252525 311.87282997 L 258.29292929 325.80247847 L 262.73333333 337.58137441 L 267.17373737 347.02018281 L 271.61414141 353.96718344 L 276.05454545 358.31070962 L 280.49494949 359.98094314 L 284.93535354 358.95103652 L 289.37575758 355.23754456 L 293.81616162 348.90015826 L 298.25656566 340.04074531 L 302.6969697 328.80171268 L 307.13737374 315.36371754 L 311.57777778 299.94276338 L 316.01818182 282.78672795 L 320.45858586 264.17137884 L 324.8989899 244.39594077 L 329.33939394 223.77828584 L 333.77979798 202.64982401 L 338.22020202 181.35017599 L 342.66060606 160.22171416 L 347.1010101 139.60405923 L 351.54141414 119.82862116 L 355.98181818 101.21327205 L 360.42222222 84.05723662 L 364.86262626 68.63628246 L 369.3030303 55.19828732 L 373.74343434 43.95925469 L 378.18383838 35.09984174 L 382.62424242 28.76245544 L 387.06464646 25.04896348 L 391.50505051 24.01905686 L 395.94545455 25.68929038 L 400.38585859 30.03281656 L 404.82626263 36.97981719 L 409.26666667 46.41862559 L 413.70707071 58.19752153 L 418.14747475 72.12717003 L 422.58787879 87.98366472 L 427.02828283 105.51212694 L 431.46868687 124.43080267 L 435.90909091 144.4355915 L 440.34949495 165.20493472 L 444.78989899 186.40498414 L 449.23030303 207.69496831 L 453.67070707 228.73267022 L 458.11111111 249.17992802 L 462.55151515 268.70807074 L 466.99191919 287.00320132 L 471.43232323 303.77124227 L 475.87272727 318.74266265 L 480.31313131 331.67681056 L 484.75353535 342.36578138 L 489.19393939 350.6377597 L 493.63434343 356.35978101 L 498.07474747 359.43986905 L 502.51515152 359.82851422 L 506.95555556 357.5194694 L 511.3959596 352.54985038 L 515.83636364 344.99953925 L 520.27676768 334.98990035 L 524.71717172 322.68182948 L 529.15757576 308.27316764 L 533.5979798 291.99552089 L 538.03838384 274.11053753 L 542.47878788 254.90570232 L 546.91919192 234.68971543 L 551.35959596 213.78753039 L 555.8 192.5351307" fill="none" stroke="#4c78a8" stroke-width="1.5"/><path id="traveler-path-0" d="M 116.2 191.4648693 L 120.64040404 170.21246961 L 125.08080808 149.31028457 L 129.52121212 129.09429768 L 133.96161616 109.88946247 L 138.4020202 92.00447911 L 142.84242424 75.72683236 L 147.28282828 61.31817052 L 151.72323232 49.01009965 L 156.16363636 39.00046075 L 160.6040404 31.45014962 L 165.04444444 26.4805306 L 169.48484848 24.17148578 L 173.92525253 24.56013095 L 178.36565657 27.64021899 L 182.80606061 33.3622403 L 187.24646465 41.63421862 L 191.68686869 52.32318944 L 196.12727273 65.25733735 L 200.56767677 80.22875773 L 205.00808081 96.99679868 L 209.44848485 115.29192926 L 213.88888889 134.82007198 L 218.32929293 155.26732978 L 222.76969697 176.30503169 L 227.21010101 197.59501586 L 231.65050505 218.79506528 L 236.09090909 239.5644085 L 240.53131313 259.56919733 L 244.97171717 278.48787306 L 249.41212121 296.01633528 L 253.85252525 311.87282997 L 258.29292929 325.80247847 L 262.73333333 337.58137441 L 267.17373737 347.02018281 L 271.61414141 353.96718344 L 276.05454545 358.31070962 L 280.49494949 359.98094314 L 284.93535354 358.95103652 L 289.37575758 355.23754456 L 293.81616162 348.90015826 L 298.25656566 340.04074531 L 302.6969697 328.80171268 L 307.13737374 315.36371754 L 311.57777778 299.94276338 L 316.01818182 282.78672795 L 320.45858586 264.17137884 L 324.8989899 244.39594077 L 329.33939394 223.77828584 L 333.77979798 202.64982401 L 338.22020202 181.35017599 L 342.66060606 160.22171416 L 347.1010101 139.60405923 L 351.54141414 119.82862116 L 355.98181818 101.21327205 L 360.42222222 84.05723662 L 364.86262626 68.63628246 L 369.3030303 55.19828732 L 373.74343434 43.95925469 L 378.18383838 35.09984174 L 382.62424242 28.76245544 L 387.06464646 25.04896348 L 391.50505051 24.01905686 L 395.94545455 25.68929038 L 400.38585859 30.03281656 L 404.82626263 36.97981719 L 409.26666667 46.41862559 L 413.70707071 58.19752153 L 418.14747475 72.12717003 L 422.58787879 87.98366472 L 427.02828283 105.51212694 L 431.46868687 124.43080267 L 435.90909091 144.4355915 L 440.34949495 165.20493472 L 444.78989899 186.40498414 L 449.23030303 207.69496831 L 453.67070707 228.73267022 L 458.11111111 249.17992802 L 462.55151515 268.70807074 L 466.99191919 287.00320132 L 471.43232323 303.77124227 L 475.87272727 318.74266265 L 480.31313131 331.67681056 L 484.75353535 342.36578138 L 489.19393939 350.6377597 L 493.63434343 356.35978101 L 498.07474747 359.43986905 L 502.51515152 359.82851422 L 506.95555556 357.5194694 L 511.3959596 352.54985038 L 515.83636364 344.99953925 L 520.27676768 334.98990035 L 524.71717172 322.68182948 L 529.15757576 308.27316764 L 533.5979798 291.99552089 L 538.03838384 274.11053753 L 542.47878788 254.90570232 L 546.91919192 234.68971543 L 551.35959596 213.78753039 L 555.8 192.5351307" fill="none" stroke="none"/><circle cx="116.2" cy="191.4648693" r="5" fill="#4c78a8" opacity="0.65"><animateMotion dur="4000ms" begin="-67ms" repeatCount="indefinite" rotate="auto"><mpath href="#traveler-path-0" xlink:href="#traveler-path-0"/></animateMotion></circle><circle cx="116.2" cy="191.4648693" r="5" fill="#4c78a8" opacity="0.6"><animateMotion dur="4000ms" begin="-133ms" repeatCount="indefinite" rotate="auto"><mpath href="#traveler-path-0" xlink:href="#traveler-path-0"/></animateMotion></circle><circle cx="116.2" cy="191.4648693" r="5" fill="#4c78a8" opacity="0.55"><animateMotion dur="4000ms" begin="-200ms" repeatCount="indefinite" rotate="auto"><mpath href="#traveler-path-0" xlink:href="#traveler-path-0"/></animateMotion></circle><circle cx="116.2" cy="191.4648693" r="5" fill="#4c78a8" opacity="0.5"><animateMotion dur="4000ms" begin="-267ms" repeatCount="indefinite" rotate="auto"><mpath href="#traveler-path-0" xlink:href="#traveler-path-0"/></animateMotion></circle><circle cx="116.2" cy="191.4648693" r="5" fill="#4c78a8" opacity="0.45"><animateMotion dur="4000ms" begin="-333ms" repeatCount="indefinite" rotate="auto"><mpath href="#traveler-path-0" xlink:href="#traveler-path-0"/></animateMotion></circle><circle cx="116.2" cy="191.4648693" r="5" fill="#4c78a8" opacity="0.4"><animateMotion dur="4000ms" begin="-400ms" repeatCount="indefinite" rotate="auto"><mpath href="#traveler-path-0" xlink:href="#traveler-path-0"/></animateMotion></circle><circle cx="116.2" cy="191.4648693" r="5" fill="#4c78a8" opacity="0.35"><animateMotion dur="4000ms" begin="-467ms" repeatCount="indefinite" rotate="auto"><mpath href="#traveler-path-0" xlink:href="#traveler-path-0"/></animateMotion></circle><circle cx="116.2" cy="191.4648693" r="5" fill="#4c78a8" opacity="0.3"><animateMotion dur="4000ms" begin="-533ms" repeatCount="indefinite" rotate="auto"><mpath href="#traveler-path-0" xlink:href="#traveler-path-0"/></animateMotion></circle><circle cx="116.2" cy="191.4648693" r="5" fill="#4c78a8" opacity="0.25"><animateMotion dur="4000ms" begin="-600ms" repeatCount="indefinite" rotate="auto"><mpath href="#traveler-path-0" xlink:href="#traveler-path-0"/></animateMotion></circle><circle cx="116.2" cy="191.4648693" r="5" fill="#4c78a8" opacity="0.2"><animateMotion dur="4000ms" begin="-667ms" repeatCount="indefinite" rotate="auto"><mpath href="#traveler-path-0" xlink:href="#traveler-path-0"/></animateMotion></circle><circle cx="116.2" cy="191.4648693" r="5" fill="#4c78a8" opacity="0.15"><animateMotion dur="4000ms" begin="-733ms" repeatCount="indefinite" rotate="auto"><mpath href="#traveler-path-0" xlink:href="#traveler-path-0"/></animateMotion></circle><circle cx="116.2" cy="191.4648693" r="5" fill="#4c78a8" opacity="0.1"><animateMotion dur="4000ms" begin="-800ms" repeatCount="indefinite" rotate="auto"><mpath href="#traveler-path-0" xlink:href="#traveler-path-0"/></animateMotion></circle><circle cx="116.2" cy="191.4648693" r="5" fill="#4c78a8"><animateMotion dur="4000ms" repeatCount="indefinite" rotate="auto"><mpath href="#traveler-path-0" xlink:href="#traveler-path-0"/></animateMotion></circle><line x1="56" y1="360" x2="616" y2="360" stroke="#999999" stroke-width="1"/><line x1="56" y1="360" x2="56" y2="364" stroke="#999999" stroke-width="1"/><text x="56" y="376" font-family="system-ui, -apple-system, sans-serif" font-size="11" fill="#333333" text-anchor="middle" dominant-baseline="hanging">-8</text><line x1="126" y1="360" x2="126" y2="364" stroke="#999999" stroke-width="1"/><text x="126" y="376" font-family="system-ui, -apple-system, sans-serif" font-size="11" fill="#333333" text-anchor="middle" dominant-baseline="hanging">-6</text><line x1="196" y1="360" x2="196" y2="364" stroke="#999999" stroke-width="1"/><text x="196" y="376" font-family="system-ui, -apple-system, sans-serif" font-size="11" fill="#333333" text-anchor="middle" dominant-baseline="hanging">-4</text><line x1="266" y1="360" x2="266" y2="364" stroke="#999999" stroke-width="1"/><text x="266" y="376" font-family="system-ui, -apple-system, sans-serif" font-size="11" fill="#333333" text-anchor="middle" dominant-baseline="hanging">-2</text><line x1="336" y1="360" x2="336" y2="364" stroke="#999999" stroke-width="1"/><text x="336" y="376" font-family="system-ui, -apple-system, sans-serif" font-size="11" fill="#333333" text-anchor="middle" dominant-baseline="hanging">0</text><line x1="406" y1="360" x2="406" y2="364" stroke="#999999" stroke-width="1"/><text x="406" y="376" font-family="system-ui, -apple-system, sans-serif" font-size="11" fill="#333333" text-anchor="middle" dominant-baseline="hanging">2</text><line x1="476" y1="360" x2="476" y2="364" stroke="#999999" stroke-width="1"/><text x="476" y="376" font-family="system-ui, -apple-system, sans-serif" font-size="11" fill="#333333" text-anchor="middle" dominant-baseline="hanging">4</text><line x1="546" y1="360" x2="546" y2="364" stroke="#999999" stroke-width="1"/><text x="546" y="376" font-family="system-ui, -apple-system, sans-serif" font-size="11" fill="#333333" text-anchor="middle" dominant-baseline="hanging">6</text><line x1="616" y1="360" x2="616" y2="364" stroke="#999999" stroke-width="1"/><text x="616" y="376" font-family="system-ui, -apple-system, sans-serif" font-size="11" fill="#333333" text-anchor="middle" dominant-baseline="hanging">8</text><text x="336" y="392" font-family="system-ui, -apple-system, sans-serif" font-size="12" fill="#333333" text-anchor="middle" dominant-baseline="hanging">x</text><line x1="56" y1="24" x2="56" y2="360" stroke="#999999" stroke-width="1"/><line x1="52" y1="360" x2="56" y2="360" stroke="#999999" stroke-width="1"/><text x="48" y="360" font-family="system-ui, -apple-system, sans-serif" font-size="11" fill="#333333" text-anchor="end" dominant-baseline="middle">-1</text><line x1="52" y1="276" x2="56" y2="276" stroke="#999999" stroke-width="1"/><text x="48" y="276" font-family="system-ui, -apple-system, sans-serif" font-size="11" fill="#333333" text-anchor="end" dominant-baseline="middle">-0.5</text><line x1="52" y1="192" x2="56" y2="192" stroke="#999999" stroke-width="1"/><text x="48" y="192" font-family="system-ui, -apple-system, sans-serif" font-size="11" fill="#333333" text-anchor="end" dominant-baseline="middle">0</text><line x1="52" y1="108" x2="56" y2="108" stroke="#999999" stroke-width="1"/><text x="48" y="108" font-family="system-ui, -apple-system, sans-serif" font-size="11" fill="#333333" text-anchor="end" dominant-baseline="middle">0.5</text><line x1="52" y1="24" x2="56" y2="24" stroke="#999999" stroke-width="1"/><text x="48" y="24" font-family="system-ui, -apple-system, sans-serif" font-size="11" fill="#333333" text-anchor="end" dominant-baseline="middle">1</text><text x="16" y="192" font-family="system-ui, -apple-system, sans-serif" font-size="12" fill="#333333" text-anchor="middle" dominant-baseline="alphabetic" transform="rotate(-90 16 192)">y</text></svg>
