<svg xmlns="http://www.w3.org/2000/svg" viewBox="0 0 640 400" width="640" height="400" role="img" aria-label="Brand kit with grey-on-grey surface (trips AUDIT-11)" aria-describedby="glyph-desc"><desc id="glyph-desc">Brand kit with grey-on-grey surface (trips AUDIT-11)</desc><metadata id="glyph-provenance"><![CDATA[{"format":"glyph-provenance/1","specHash":"e2eef97cc20265cb3669d7169b93834bc53f63e0c463e7408a9c92424bb8cc01","dataHash":"85d47ede2101da746dcb1dbd0702225dfa35323b60d499a9c24260f21525fa3a","libraryVersion":"0.0.0","rowCount":12,"scaleDigest":"4885e0289477b0aba8148a170190edacbd26913d25575560b201794a9c7664fa"}]]></metadata><rect x="0" y="0" width="640" height="400" fill="#999999"/><text x="320" y="16" font-family="system-ui, -apple-system, sans-serif" font-size="14" fill="#1a1a1a" text-anchor="middle" dominant-baseline="middle">Brand kit with grey-on-grey surface (trips AUDIT-11)</text><line x1="56" y1="360" x2="616" y2="360" stroke="#e6e6e6" stroke-width="1"/><line x1="56" y1="276" x2="616" y2="276" stroke="#e6e6e6" stroke-width="1"/><line x1="56" y1="192" x2="616" y2="192" stroke="#e6e6e6" stroke-width="1"/><line x1="56" y1="108" x2="616" y2="108" stroke="#e6e6e6" stroke-width="1"/><line x1="56" y1="24" x2="616" y2="24" stroke="#e6e6e6" stroke-width="1"/><rect x="58.33333333" y="150" width="42" height="210" fill="#888888"/><rect x="105" y="81.879257" width="42" height="278.120743" fill="#888888"/><rect x="151.66666667" y="35.38636859" width="42" height="324.61363141" fill="#888888"/><rect x="198.33333333" y="25.28249832" width="42" height="334.71750168" fill="#888888"/><rect x="245" y="54.77555363" width="42" height="305.22444637" fill="#888888"/><rect x="291.66666667" y="114.50169784" width="42" height="245.49830216" fill="#888888"/><rect x="338.33333333" y="185.49830216" width="42" height="174.50169784" fill="#888888"/><rect x="385" y="245.22444637" width="42" height="114.77555363" fill="#888888"/><rect x="431.66666667" y="274.71750168" width="42" height="85.28249832" fill="#888888"/><rect x="478.33333333" y="264.61363141" width="42" height="95.38636859" fill="#888888"/><rect x="525" y="218.120743" width="42" height="141.879257" fill="#888888"/><rect x="571.66666667" y="150" width="42" height="210" fill="#888888"/><line x1="56" y1="360" x2="616" y2="360" stroke="#999999" stroke-width="1"/><line x1="79.33333333" y1="360" x2="79.33333333" y2="364" stroke="#999999" stroke-width="1"/><text x="79.33333333" y="374" font-family="system-ui, -apple-system, sans-serif" font-size="11" fill="#333333" text-anchor="end" dominant-baseline="middle" transform="rotate(-45 79.33333333 374)">0</text><line x1="126" y1="360" x2="126" y2="364" stroke="#999999" stroke-width="1"/><text x="126" y="374" font-family="system-ui, -apple-system, sans-serif" font-size="11" fill="#333333" text-anchor="end" dominant-baseline="middle" transform="rotate(-45 126 374)">0.5711986642890533</text><line x1="172.66666667" y1="360" x2="172.66666667" y2="364" stroke="#999999" stroke-width="1"/><text x="172.66666667" y="374" font-family="system-ui, -apple-system, sans-serif" font-size="11" fill="#333333" text-anchor="end" dominant-baseline="middle" transform="rotate(-45 172.66666667 374)">1.1423973285781066</text><line x1="219.33333333" y1="360" x2="219.33333333" y2="364" stroke="#999999" stroke-width="1"/><text x="219.33333333" y="374" font-family="system-ui, -apple-system, sans-serif" font-size="11" fill="#333333" text-anchor="end" dominant-baseline="middle" transform="rotate(-45 219.33333333 374)">1.7135959928671598</text><line x1="266" y1="360" x2="266" y2="364" stroke="#999999" stroke-width="1"/><text x="266" y="374" font-family="system-ui, -apple-system, sans-serif" font-size="11" fill="#333333" text-anchor="end" dominant-baseline="middle" transform="rotate(-45 266 374)">2.284794657156213</text><line x1="312.66666667" y1="360" x2="312.66666667" y2="364" stroke="#999999" stroke-width="1"/><text x="312.66666667" y="374" font-family="system-ui, -apple-system, sans-serif" font-size="11" fill="#333333" text-anchor="end" dominant-baseline="middle" transform="rotate(-45 312.66666667 374)">2.8559933214452666</text><line x1="359.33333333" y1="360" x2="359.33333333" y2="364" stroke="#999999" stroke-width="1"/><text x="359.33333333" y="374" font-family="system-ui, -apple-system, sans-serif" font-size="11" fill="#333333" text-anchor="end" dominant-baseline="middle" transform="rotate(-45 359.33333333 374)">3.4271919857343196</text><line x1="406" y1="360" x2="406" y2="364" stroke="#999999" stroke-width="1"/><text x="406" y="374" font-family="system-ui, -apple-system, sans-serif" font-size="11" fill="#333333" text-anchor="end" dominant-baseline="middle" transform="rotate(-45 406 374)">3.998390650023373</text><line x1="452.66666667" y1="360" x2="452.66666667" y2="364" stroke="#999999" stroke-width="1"/><text x="452.66666667" y="374" font-family="system-ui, -apple-system, sans-serif" font-size="11" fill="#333333" text-anchor="end" dominant-baseline="middle" transform="rotate(-45 452.66666667 374)">4.569589314312426</text><line x1="499.33333333" y1="360" x2="499.33333333" y2="364" stroke="#999999" stroke-width="1"/><text x="499.33333333" y="374" font-family="system-ui, -apple-system, sans-serif" font-size="11" fill="#333333" text-anchor="end" dominant-baseline="middle" transform="rotate(-45 499.33333333 374)">5.140787978601479</text><line x1="546" y1="360" x2="546" y2="364" stroke="#999999" stroke-width="1"/><text x="546" y="374" font-family="system-ui, -apple-system, sans-serif" font-size="11" fill="#333333" text-anchor="end" dominant-baseline="middle" transform="rotate(-45 546 374)">5.711986642890533</text><line x1="592.66666667" y1="360" x2="592.66666667" y2="364" stroke="#999999" stroke-width="1"/><text x="592.66666667" y="374" font-family="system-ui, -apple-system, sans-serif" font-size="11" fill="#333333" text-anchor="end" dominant-baseline="middle" transform="rotate(-45 592.66666667 374)">6.283185307179586</text><text x="336" y="420" font-family="system-ui, -apple-system, sans-serif" font-size="12" fill="#333333" text-anchor="middle" dominant-baseline="hanging">x</text><line x1="56" y1="24" x2="56" y2="360" stroke="#999999" stroke-width="1"/><line x1="52" y1="360" x2="56" y2="360" stroke="#999999" stroke-width="1"/><text x="48" y="360" font-family="system-ui, -apple-system, sans-serif" font-size="11" fill="#333333" text-anchor="end" dominant-baseline="middle">0</text><line x1="52" y1="276" x2="56" y2="276" stroke="#999999" stroke-width="1"/><text x="48" y="276" font-family="system-ui, -apple-system, sans-serif" font-size="11" fill="#333333" text-anchor="end" dominant-baseline="middle">2</text><line x1="52" y1="192" x2="56" y2="192" stroke="#999999" stroke-width="1"/><text x="48" y="192" font-family="system-ui, -apple-system, sans-serif" font-size="11" fill="#333333" text-anchor="end" dominant-baseline="middle">4</text><line x1="52" y1="108" x2="56" y2="108" stroke="#999999" stroke-width="1"/><text x="48" y="108" font-family="system-ui, -apple-system, sans-serif" font-size="11" fill="#333333" text-anchor="end" dominant-baseline="middle">6</text><line x1="52" y1="24" x2="56" y2="24" stroke="#999999" stroke-width="1"/><text x="48" y="24" font-family="system-ui, -apple-system, sans-serif" font-size="11" fill="#333333" text-anchor="end" dominant-baseline="middle">8</text><text x="16" y="192" font-family="system-ui, -apple-system, sans-serif" font-size="12" fill="#333333" text-anchor="middle" dominant-baseline="alphabetic" transform="rotate(-90 16 192)">y</text></svg>
